<svg width="96" height="96" xmlns="http://www.w3.org/2000/svg" xmlns:xlink="http://www.w3.org/1999/xlink" xml:space="preserve" overflow="hidden"><g transform="translate(-592 -312)"><path d="M669.141 350.265 671 348.778 670.921 348.214C670.035 342.235 665.221 335.529 655.206 333.249 654.666 333.135 654.135 333.481 654.021 334.022 654.007 334.09 654 334.159 654 334.229L654 336.222C654.008 336.672 654.324 337.057 654.763 337.153 659.516 338.326 662.795 343.393 663.112 349.688L664.926 380.152C665.008 381.535 663.954 382.723 662.57 382.805 662.561 382.806 662.551 382.807 662.542 382.807L662.434 382.807C660.999 382.735 659.881 381.536 659.909 380.1L659.909 363.6C659.909 359.182 656.327 355.6 651.909 355.6L650 355.6 650 332C650 328.686 647.314 326 644 326L620 326C616.686 326 614 328.686 614 332L614 388 610 388 610 394 654 394 654 388 650 388 650 361.6 651.909 361.6C653.014 361.6 653.909 362.495 653.909 363.6L653.909 379.982C653.86 382.929 655.291 385.704 657.72 387.373 661.626 389.977 666.903 388.922 669.508 385.016 670.535 383.475 671.031 381.641 670.92 379.792ZM620 332 644 332 644 350 620 350Z"/></g></svg>